<svg xmlns="http://www.w3.org/2000/svg" width="700" height="420" font-family="Arial,sans-serif" font-size="12">
<rect width="700" height="420" fill="white"/>
<text x="350" y="25" text-anchor="middle" font-size="15" font-weight="bold">Grid Cost vs Battery Leakage (Battery=10000)</text>
<line x1="90" y1="360.0" x2="520" y2="360.0" stroke="#e0e0e0" stroke-width="0.5"/>
<text x="82" y="364.0" text-anchor="end" font-size="10">264K</text>
<line x1="90" y1="308.3" x2="520" y2="308.3" stroke="#e0e0e0" stroke-width="0.5"/>
<text x="82" y="312.3" text-anchor="end" font-size="10">289K</text>
<line x1="90" y1="256.7" x2="520" y2="256.7" stroke="#e0e0e0" stroke-width="0.5"/>
<text x="82" y="260.7" text-anchor="end" font-size="10">313K</text>
<line x1="90" y1="205.0" x2="520" y2="205.0" stroke="#e0e0e0" stroke-width="0.5"/>
<text x="82" y="209.0" text-anchor="end" font-size="10">337K</text>
<line x1="90" y1="153.3" x2="520" y2="153.3" stroke="#e0e0e0" stroke-width="0.5"/>
<text x="82" y="157.3" text-anchor="end" font-size="10">362K</text>
<line x1="90" y1="101.7" x2="520" y2="101.7" stroke="#e0e0e0" stroke-width="0.5"/>
<text x="82" y="105.7" text-anchor="end" font-size="10">386K</text>
<line x1="90" y1="50.0" x2="520" y2="50.0" stroke="#e0e0e0" stroke-width="0.5"/>
<text x="82" y="54.0" text-anchor="end" font-size="10">411K</text>
<line x1="90.0" y1="360" x2="90.0" y2="365" stroke="#333"/>
<text x="90.0" y="380" text-anchor="middle" font-size="10">0.5</text>
<line x1="176.0" y1="360" x2="176.0" y2="365" stroke="#333"/>
<text x="176.0" y="380" text-anchor="middle" font-size="10">0.75</text>
<line x1="262.0" y1="360" x2="262.0" y2="365" stroke="#333"/>
<text x="262.0" y="380" text-anchor="middle" font-size="10">0.85</text>
<line x1="348.0" y1="360" x2="348.0" y2="365" stroke="#333"/>
<text x="348.0" y="380" text-anchor="middle" font-size="10">0.9</text>
<line x1="434.0" y1="360" x2="434.0" y2="365" stroke="#333"/>
<text x="434.0" y="380" text-anchor="middle" font-size="10">0.95</text>
<line x1="520.0" y1="360" x2="520.0" y2="365" stroke="#333"/>
<text x="520.0" y="380" text-anchor="middle" font-size="10">0.99</text>
<line x1="90" y1="50" x2="90" y2="360" stroke="#333" stroke-width="1.5"/>
<line x1="90" y1="360" x2="520" y2="360" stroke="#333" stroke-width="1.5"/>
<text x="305" y="410" text-anchor="middle" font-size="12">Leakage Factor (h_l)</text>
<text x="15" y="205" text-anchor="middle" font-size="12" transform="rotate(-90,15,205)">Grid Cost ($)</text>
<path d="M90.0,242.5 L176.0,242.5 L262.0,242.5 L348.0,242.5 L434.0,242.5 L520.0,242.5" fill="none" stroke="#888888" stroke-width="1.5" stroke-dasharray="8,4"/>
<circle cx="90.0" cy="242.5" r="3" fill="#888888"/>
<circle cx="176.0" cy="242.5" r="3" fill="#888888"/>
<circle cx="262.0" cy="242.5" r="3" fill="#888888"/>
<circle cx="348.0" cy="242.5" r="3" fill="#888888"/>
<circle cx="434.0" cy="242.5" r="3" fill="#888888"/>
<circle cx="520.0" cy="242.5" r="3" fill="#888888"/>
<path d="M90.0,91.3 L176.0,110.5 L262.0,123.1 L348.0,123.9 L434.0,134.9 L520.0,216.1" fill="none" stroke="#3498db" stroke-width="1.5" stroke-dasharray="6,3"/>
<circle cx="90.0" cy="91.3" r="3" fill="#3498db"/>
<circle cx="176.0" cy="110.5" r="3" fill="#3498db"/>
<circle cx="262.0" cy="123.1" r="3" fill="#3498db"/>
<circle cx="348.0" cy="123.9" r="3" fill="#3498db"/>
<circle cx="434.0" cy="134.9" r="3" fill="#3498db"/>
<circle cx="520.0" cy="216.1" r="3" fill="#3498db"/>
<path d="M90.0,267.5 L176.0,267.5 L262.0,267.6 L348.0,267.5 L434.0,267.6 L520.0,267.7" fill="none" stroke="#e74c3c" stroke-width="1.5" stroke-dasharray="4,2"/>
<circle cx="90.0" cy="267.5" r="3" fill="#e74c3c"/>
<circle cx="176.0" cy="267.5" r="3" fill="#e74c3c"/>
<circle cx="262.0" cy="267.6" r="3" fill="#e74c3c"/>
<circle cx="348.0" cy="267.5" r="3" fill="#e74c3c"/>
<circle cx="434.0" cy="267.6" r="3" fill="#e74c3c"/>
<circle cx="520.0" cy="267.7" r="3" fill="#e74c3c"/>
<path d="M90.0,151.3 L176.0,170.2 L262.0,182.8 L348.0,189.3 L434.0,220.8 L520.0,255.0" fill="none" stroke="#2ecc71" stroke-width="1.5" stroke-dasharray="2,2"/>
<circle cx="90.0" cy="151.3" r="3" fill="#2ecc71"/>
<circle cx="176.0" cy="170.2" r="3" fill="#2ecc71"/>
<circle cx="262.0" cy="182.8" r="3" fill="#2ecc71"/>
<circle cx="348.0" cy="189.3" r="3" fill="#2ecc71"/>
<circle cx="434.0" cy="220.8" r="3" fill="#2ecc71"/>
<circle cx="520.0" cy="255.0" r="3" fill="#2ecc71"/>
<path d="M90.0,236.5 L176.0,247.7 L262.0,256.0 L348.0,261.1 L434.0,272.0 L520.0,289.3" fill="none" stroke="#9b59b6" stroke-width="1.5" stroke-dasharray="10,3"/>
<circle cx="90.0" cy="236.5" r="3" fill="#9b59b6"/>
<circle cx="176.0" cy="247.7" r="3" fill="#9b59b6"/>
<circle cx="262.0" cy="256.0" r="3" fill="#9b59b6"/>
<circle cx="348.0" cy="261.1" r="3" fill="#9b59b6"/>
<circle cx="434.0" cy="272.0" r="3" fill="#9b59b6"/>
<circle cx="520.0" cy="289.3" r="3" fill="#9b59b6"/>
<path d="M90.0,267.5 L176.0,267.5 L262.0,267.6 L348.0,267.6 L434.0,267.6 L520.0,267.6" fill="none" stroke="#f39c12" stroke-width="1.5" stroke-dasharray="4,4"/>
<circle cx="90.0" cy="267.5" r="3" fill="#f39c12"/>
<circle cx="176.0" cy="267.5" r="3" fill="#f39c12"/>
<circle cx="262.0" cy="267.6" r="3" fill="#f39c12"/>
<circle cx="348.0" cy="267.6" r="3" fill="#f39c12"/>
<circle cx="434.0" cy="267.6" r="3" fill="#f39c12"/>
<circle cx="520.0" cy="267.6" r="3" fill="#f39c12"/>
<path d="M90.0,232.7 L176.0,243.6 L262.0,251.6 L348.0,256.7 L434.0,264.2 L520.0,278.2" fill="none" stroke="#1abc9c" stroke-width="1.5" stroke-dasharray="6,2,2,2"/>
<circle cx="90.0" cy="232.7" r="3" fill="#1abc9c"/>
<circle cx="176.0" cy="243.6" r="3" fill="#1abc9c"/>
<circle cx="262.0" cy="251.6" r="3" fill="#1abc9c"/>
<circle cx="348.0" cy="256.7" r="3" fill="#1abc9c"/>
<circle cx="434.0" cy="264.2" r="3" fill="#1abc9c"/>
<circle cx="520.0" cy="278.2" r="3" fill="#1abc9c"/>
<path d="M90.0,285.4 L176.0,298.1 L262.0,303.4 L348.0,306.7 L434.0,308.9 L520.0,311.5" fill="none" stroke="#e91e63" stroke-width="2.5"/>
<circle cx="90.0" cy="285.4" r="4" fill="#e91e63"/>
<circle cx="176.0" cy="298.1" r="4" fill="#e91e63"/>
<circle cx="262.0" cy="303.4" r="4" fill="#e91e63"/>
<circle cx="348.0" cy="306.7" r="4" fill="#e91e63"/>
<circle cx="434.0" cy="308.9" r="4" fill="#e91e63"/>
<circle cx="520.0" cy="311.5" r="4" fill="#e91e63"/>
<line x1="535" y1="60" x2="555" y2="60" stroke="#888888" stroke-width="2"/>
<circle cx="545" cy="60" r="3" fill="#888888"/>
<text x="560" y="64" font-size="11">NaiveGrid</text>
<line x1="535" y1="78" x2="555" y2="78" stroke="#3498db" stroke-width="2"/>
<circle cx="545" cy="78" r="3" fill="#3498db"/>
<text x="560" y="82" font-size="11">SDC</text>
<line x1="535" y1="96" x2="555" y2="96" stroke="#e74c3c" stroke-width="2"/>
<circle cx="545" cy="96" r="3" fill="#e74c3c"/>
<text x="560" y="100" font-size="11">GG</text>
<line x1="535" y1="114" x2="555" y2="114" stroke="#2ecc71" stroke-width="2"/>
<circle cx="545" cy="114" r="3" fill="#2ecc71"/>
<text x="560" y="118" font-size="11">SP+SDC</text>
<line x1="535" y1="132" x2="555" y2="132" stroke="#9b59b6" stroke-width="2"/>
<circle cx="545" cy="132" r="3" fill="#9b59b6"/>
<text x="560" y="136" font-size="11">Lyapunov</text>
<line x1="535" y1="150" x2="555" y2="150" stroke="#f39c12" stroke-width="2"/>
<circle cx="545" cy="150" r="3" fill="#f39c12"/>
<text x="560" y="154" font-size="11">SF-Only</text>
<line x1="535" y1="168" x2="555" y2="168" stroke="#1abc9c" stroke-width="2"/>
<circle cx="545" cy="168" r="3" fill="#1abc9c"/>
<text x="560" y="172" font-size="11">GF-Only</text>
<line x1="535" y1="186" x2="555" y2="186" stroke="#e91e63" stroke-width="2"/>
<circle cx="545" cy="186" r="3" fill="#e91e63"/>
<text x="560" y="190" font-size="11" font-weight="bold">H-GES</text>
</svg>